<mxfile host="app.diagrams.net" modified="2024-05-22T14:41:05.062Z" agent="Mozilla/5.0 (Windows NT 10.0; Win64; x64) AppleWebKit/537.36 (KHTML, like Gecko) Chrome/92.0.4515.131 Safari/537.36 Edg/92.0.902.67" etag="MPXqz8SQac9ehTp6XjtK" version="24.4.6" type="device">
  <diagram id="C5RBs43oDa-KdzZeNtuy" name="Page-1">
    <mxGraphModel dx="1500" dy="1998" grid="1" gridSize="10" guides="1" tooltips="1" connect="1" arrows="1" fold="1" page="1" pageScale="1" pageWidth="827" pageHeight="1169" math="0" shadow="0">
      <root>
        <mxCell id="WIyWlLk6GJQsqaUBKTNV-0" />
        <mxCell id="WIyWlLk6GJQsqaUBKTNV-1" parent="WIyWlLk6GJQsqaUBKTNV-0" />
        <mxCell id="t4MZBcy6rLfpuFVAITIc-8" style="edgeStyle=orthogonalEdgeStyle;rounded=0;orthogonalLoop=1;jettySize=auto;html=1;" edge="1" parent="WIyWlLk6GJQsqaUBKTNV-1" source="t4MZBcy6rLfpuFVAITIc-0" target="t4MZBcy6rLfpuFVAITIc-2">
          <mxGeometry relative="1" as="geometry" />
        </mxCell>
        <mxCell id="t4MZBcy6rLfpuFVAITIc-0" value="Inicio" style="ellipse;whiteSpace=wrap;html=1;" vertex="1" parent="WIyWlLk6GJQsqaUBKTNV-1">
          <mxGeometry x="40" y="-50" width="120" height="80" as="geometry" />
        </mxCell>
        <mxCell id="t4MZBcy6rLfpuFVAITIc-35" style="edgeStyle=orthogonalEdgeStyle;rounded=0;orthogonalLoop=1;jettySize=auto;html=1;" edge="1" parent="WIyWlLk6GJQsqaUBKTNV-1" source="t4MZBcy6rLfpuFVAITIc-1" target="t4MZBcy6rLfpuFVAITIc-33">
          <mxGeometry relative="1" as="geometry" />
        </mxCell>
        <mxCell id="t4MZBcy6rLfpuFVAITIc-1" value="Mostrar noticias" style="rounded=0;whiteSpace=wrap;html=1;" vertex="1" parent="WIyWlLk6GJQsqaUBKTNV-1">
          <mxGeometry x="780" y="-40" width="120" height="60" as="geometry" />
        </mxCell>
        <mxCell id="t4MZBcy6rLfpuFVAITIc-12" style="edgeStyle=orthogonalEdgeStyle;rounded=0;orthogonalLoop=1;jettySize=auto;html=1;" edge="1" parent="WIyWlLk6GJQsqaUBKTNV-1" source="t4MZBcy6rLfpuFVAITIc-2" target="t4MZBcy6rLfpuFVAITIc-1">
          <mxGeometry relative="1" as="geometry" />
        </mxCell>
        <mxCell id="t4MZBcy6rLfpuFVAITIc-13" value="Si" style="edgeLabel;html=1;align=center;verticalAlign=middle;resizable=0;points=[];" vertex="1" connectable="0" parent="t4MZBcy6rLfpuFVAITIc-12">
          <mxGeometry x="-0.1352" y="2" relative="1" as="geometry">
            <mxPoint as="offset" />
          </mxGeometry>
        </mxCell>
        <mxCell id="t4MZBcy6rLfpuFVAITIc-19" style="edgeStyle=orthogonalEdgeStyle;rounded=0;orthogonalLoop=1;jettySize=auto;html=1;" edge="1" parent="WIyWlLk6GJQsqaUBKTNV-1" source="t4MZBcy6rLfpuFVAITIc-2" target="t4MZBcy6rLfpuFVAITIc-16">
          <mxGeometry relative="1" as="geometry">
            <Array as="points">
              <mxPoint x="275" y="-130" />
            </Array>
          </mxGeometry>
        </mxCell>
        <mxCell id="t4MZBcy6rLfpuFVAITIc-20" value="No" style="edgeLabel;html=1;align=center;verticalAlign=middle;resizable=0;points=[];" vertex="1" connectable="0" parent="t4MZBcy6rLfpuFVAITIc-19">
          <mxGeometry x="-0.04" relative="1" as="geometry">
            <mxPoint as="offset" />
          </mxGeometry>
        </mxCell>
        <mxCell id="t4MZBcy6rLfpuFVAITIc-2" value="Tiene JWT?" style="rhombus;whiteSpace=wrap;html=1;" vertex="1" parent="WIyWlLk6GJQsqaUBKTNV-1">
          <mxGeometry x="220" y="-65" width="110" height="110" as="geometry" />
        </mxCell>
        <mxCell id="t4MZBcy6rLfpuFVAITIc-15" value="Ver detalles noticia" style="rounded=0;whiteSpace=wrap;html=1;" vertex="1" parent="WIyWlLk6GJQsqaUBKTNV-1">
          <mxGeometry x="1360" y="-40" width="120" height="60" as="geometry" />
        </mxCell>
        <mxCell id="t4MZBcy6rLfpuFVAITIc-22" value="" style="edgeStyle=orthogonalEdgeStyle;rounded=0;orthogonalLoop=1;jettySize=auto;html=1;" edge="1" parent="WIyWlLk6GJQsqaUBKTNV-1" source="t4MZBcy6rLfpuFVAITIc-16" target="t4MZBcy6rLfpuFVAITIc-21">
          <mxGeometry relative="1" as="geometry" />
        </mxCell>
        <mxCell id="t4MZBcy6rLfpuFVAITIc-26" style="edgeStyle=orthogonalEdgeStyle;rounded=0;orthogonalLoop=1;jettySize=auto;html=1;" edge="1" parent="WIyWlLk6GJQsqaUBKTNV-1" source="t4MZBcy6rLfpuFVAITIc-16" target="t4MZBcy6rLfpuFVAITIc-17">
          <mxGeometry relative="1" as="geometry">
            <Array as="points">
              <mxPoint x="460" y="-260" />
            </Array>
          </mxGeometry>
        </mxCell>
        <mxCell id="t4MZBcy6rLfpuFVAITIc-27" value="No" style="edgeLabel;html=1;align=center;verticalAlign=middle;resizable=0;points=[];" vertex="1" connectable="0" parent="t4MZBcy6rLfpuFVAITIc-26">
          <mxGeometry x="0.335" y="-4" relative="1" as="geometry">
            <mxPoint as="offset" />
          </mxGeometry>
        </mxCell>
        <mxCell id="t4MZBcy6rLfpuFVAITIc-28" value="" style="edgeStyle=orthogonalEdgeStyle;rounded=0;orthogonalLoop=1;jettySize=auto;html=1;" edge="1" parent="WIyWlLk6GJQsqaUBKTNV-1" source="t4MZBcy6rLfpuFVAITIc-16" target="t4MZBcy6rLfpuFVAITIc-21">
          <mxGeometry relative="1" as="geometry" />
        </mxCell>
        <mxCell id="t4MZBcy6rLfpuFVAITIc-29" value="Si" style="edgeLabel;html=1;align=center;verticalAlign=middle;resizable=0;points=[];" vertex="1" connectable="0" parent="t4MZBcy6rLfpuFVAITIc-28">
          <mxGeometry x="-0.2914" relative="1" as="geometry">
            <mxPoint as="offset" />
          </mxGeometry>
        </mxCell>
        <mxCell id="t4MZBcy6rLfpuFVAITIc-16" value="Tiene usuario?" style="rhombus;whiteSpace=wrap;html=1;" vertex="1" parent="WIyWlLk6GJQsqaUBKTNV-1">
          <mxGeometry x="420" y="-170" width="80" height="80" as="geometry" />
        </mxCell>
        <mxCell id="t4MZBcy6rLfpuFVAITIc-31" style="edgeStyle=orthogonalEdgeStyle;rounded=0;orthogonalLoop=1;jettySize=auto;html=1;" edge="1" parent="WIyWlLk6GJQsqaUBKTNV-1" source="t4MZBcy6rLfpuFVAITIc-17" target="t4MZBcy6rLfpuFVAITIc-30">
          <mxGeometry relative="1" as="geometry" />
        </mxCell>
        <mxCell id="t4MZBcy6rLfpuFVAITIc-17" value="Ir a registro" style="rounded=0;whiteSpace=wrap;html=1;" vertex="1" parent="WIyWlLk6GJQsqaUBKTNV-1">
          <mxGeometry x="560" y="-300" width="120" height="60" as="geometry" />
        </mxCell>
        <mxCell id="t4MZBcy6rLfpuFVAITIc-24" value="" style="edgeStyle=orthogonalEdgeStyle;rounded=0;orthogonalLoop=1;jettySize=auto;html=1;" edge="1" parent="WIyWlLk6GJQsqaUBKTNV-1" source="t4MZBcy6rLfpuFVAITIc-21" target="t4MZBcy6rLfpuFVAITIc-23">
          <mxGeometry relative="1" as="geometry" />
        </mxCell>
        <mxCell id="t4MZBcy6rLfpuFVAITIc-21" value="Ir a Login" style="whiteSpace=wrap;html=1;" vertex="1" parent="WIyWlLk6GJQsqaUBKTNV-1">
          <mxGeometry x="570" y="-160" width="120" height="60" as="geometry" />
        </mxCell>
        <mxCell id="t4MZBcy6rLfpuFVAITIc-25" style="edgeStyle=orthogonalEdgeStyle;rounded=0;orthogonalLoop=1;jettySize=auto;html=1;" edge="1" parent="WIyWlLk6GJQsqaUBKTNV-1" source="t4MZBcy6rLfpuFVAITIc-23" target="t4MZBcy6rLfpuFVAITIc-1">
          <mxGeometry relative="1" as="geometry" />
        </mxCell>
        <mxCell id="t4MZBcy6rLfpuFVAITIc-23" value="Generar JWT" style="shape=parallelogram;perimeter=parallelogramPerimeter;whiteSpace=wrap;html=1;fixedSize=1;" vertex="1" parent="WIyWlLk6GJQsqaUBKTNV-1">
          <mxGeometry x="780" y="-160" width="120" height="60" as="geometry" />
        </mxCell>
        <mxCell id="t4MZBcy6rLfpuFVAITIc-32" style="edgeStyle=orthogonalEdgeStyle;rounded=0;orthogonalLoop=1;jettySize=auto;html=1;" edge="1" parent="WIyWlLk6GJQsqaUBKTNV-1" source="t4MZBcy6rLfpuFVAITIc-30" target="t4MZBcy6rLfpuFVAITIc-21">
          <mxGeometry relative="1" as="geometry">
            <Array as="points">
              <mxPoint x="840" y="-200" />
              <mxPoint x="630" y="-200" />
            </Array>
          </mxGeometry>
        </mxCell>
        <mxCell id="t4MZBcy6rLfpuFVAITIc-30" value="Registrar Usuario" style="shape=parallelogram;perimeter=parallelogramPerimeter;whiteSpace=wrap;html=1;fixedSize=1;" vertex="1" parent="WIyWlLk6GJQsqaUBKTNV-1">
          <mxGeometry x="780" y="-300" width="120" height="60" as="geometry" />
        </mxCell>
        <mxCell id="t4MZBcy6rLfpuFVAITIc-36" style="edgeStyle=orthogonalEdgeStyle;rounded=0;orthogonalLoop=1;jettySize=auto;html=1;" edge="1" parent="WIyWlLk6GJQsqaUBKTNV-1" source="t4MZBcy6rLfpuFVAITIc-33" target="t4MZBcy6rLfpuFVAITIc-34">
          <mxGeometry relative="1" as="geometry" />
        </mxCell>
        <mxCell id="t4MZBcy6rLfpuFVAITIc-33" value="Solicitar detalles noticia" style="rounded=0;whiteSpace=wrap;html=1;" vertex="1" parent="WIyWlLk6GJQsqaUBKTNV-1">
          <mxGeometry x="990" y="-40" width="120" height="60" as="geometry" />
        </mxCell>
        <mxCell id="t4MZBcy6rLfpuFVAITIc-37" style="edgeStyle=orthogonalEdgeStyle;rounded=0;orthogonalLoop=1;jettySize=auto;html=1;" edge="1" parent="WIyWlLk6GJQsqaUBKTNV-1" source="t4MZBcy6rLfpuFVAITIc-34" target="t4MZBcy6rLfpuFVAITIc-15">
          <mxGeometry relative="1" as="geometry" />
        </mxCell>
        <mxCell id="t4MZBcy6rLfpuFVAITIc-41" value="Si" style="edgeLabel;html=1;align=center;verticalAlign=middle;resizable=0;points=[];" vertex="1" connectable="0" parent="t4MZBcy6rLfpuFVAITIc-37">
          <mxGeometry x="-0.2222" y="1" relative="1" as="geometry">
            <mxPoint as="offset" />
          </mxGeometry>
        </mxCell>
        <mxCell id="t4MZBcy6rLfpuFVAITIc-39" style="edgeStyle=orthogonalEdgeStyle;rounded=0;orthogonalLoop=1;jettySize=auto;html=1;" edge="1" parent="WIyWlLk6GJQsqaUBKTNV-1" source="t4MZBcy6rLfpuFVAITIc-34" target="t4MZBcy6rLfpuFVAITIc-16">
          <mxGeometry relative="1" as="geometry">
            <Array as="points">
              <mxPoint x="1225" y="-70" />
              <mxPoint x="460" y="-70" />
            </Array>
          </mxGeometry>
        </mxCell>
        <mxCell id="t4MZBcy6rLfpuFVAITIc-40" value="No" style="edgeLabel;html=1;align=center;verticalAlign=middle;resizable=0;points=[];" vertex="1" connectable="0" parent="t4MZBcy6rLfpuFVAITIc-39">
          <mxGeometry x="-0.4825" y="2" relative="1" as="geometry">
            <mxPoint as="offset" />
          </mxGeometry>
        </mxCell>
        <mxCell id="t4MZBcy6rLfpuFVAITIc-34" value="Tiene JWT?" style="rhombus;whiteSpace=wrap;html=1;" vertex="1" parent="WIyWlLk6GJQsqaUBKTNV-1">
          <mxGeometry x="1180" y="-55" width="90" height="90" as="geometry" />
        </mxCell>
      </root>
    </mxGraphModel>
  </diagram>
</mxfile>
